# xmcd
#
# Track frame offsets: 
#        150
#        5658
#        16960
#        27532
#        36341
#        48161
#        62880
#        76667
#        90020
#        98757
#        108243
#        120394
#        133609
#        146232
#        158738
#        169201
#        179157
#        190313
#        201863
#        213975
#
# Disc length: 3033 seconds
#
# Revision: 1
# Processed by: cddbd v1.5.2PL0 Copyright (c) Steve Scherf et al.
# Submitted via: ExactAudioCopy v0.99pb5
#
DISCID=0e0bd714
DTITLE=Various Artist - Totally Essential Bluegrass - CD2
DYEAR=1900
DGENRE=Bluegrass
TTITLE0=Stanley Brothers - Cotton  eyed Joe (1947)
TTITLE1=Bill Monroe - New mule skinner blues (1950)
TTITLE2=Bailey Brothers - Happy Valley special (1947)
TTITLE3=Don Reno and Arthur Smith - Fuedin' banjoes (1955)
TTITLE4=Flatt and Scruggs - I'm going to make Heaven my home (1948)
TTITLE5=Blue Sky Boys - In the hills of Roane County (1940)
TTITLE6=Uncle Dave Macon - Go along mule (1927)
TTITLE7=The Rouse Brothers - Orange Blossom special (1939)
TTITLE8=Jimmy Martin and The Osborne Brothers - She's just a cute thing 
TTITLE8=(1951)
TTITLE9=Jim and Jesse - Air mail special (1953)
TTITLE10=Flatt and Scruggs - Don't get above your raisin' (1951)
TTITLE11=Bill-Monroe - I'm going back to old Kentucky (1949)
TTITLE12=Coon Creek Girls - Banjo pickin' girl (1944)
TTITLE13=Grandpa Jones - Mountain dew (1947)
TTITLE14=Reno and Smiley - I'm gone long gone (1952)
TTITLE15=Charlie Monroe's Boys - The great speckled bird (1938)
TTITLE16=Bill and Charlie Monroe - Roll in my sweet baby's arms (1936)
TTITLE17=Jimmie Skinner - Doin' my time (1948)
TTITLE18=Molly O'Day - Poor Ellen Smith (1949)
TTITLE19=Brownsferry Four - Will the circle be unbroken (1946)
EXTD=
EXTT0=
EXTT1=
EXTT2=
EXTT3=
EXTT4=
EXTT5=
EXTT6=
EXTT7=
EXTT8=
EXTT9=
EXTT10=
EXTT11=
EXTT12=
EXTT13=
EXTT14=
EXTT15=
EXTT16=
EXTT17=
EXTT18=
EXTT19=
PLAYORDER=
